<svg width="26" height="25" viewBox="0 0 26 25" fill="none" xmlns="http://www.w3.org/2000/svg">
<path d="M5.90437 16.4738C6.2618 16.4738 6.61572 16.4034 6.94594 16.2666C7.27616 16.1298 7.5762 15.9293 7.82894 15.6766C8.08168 15.4239 8.28216 15.1238 8.41894 14.7936C8.55572 14.4634 8.62612 14.1095 8.62612 13.752C8.62612 13.3946 8.55572 13.0407 8.41894 12.7105C8.28216 12.3802 8.08168 12.0802 7.82894 11.8275C7.5762 11.5747 7.27616 11.3742 6.94594 11.2375C6.61572 11.1007 6.2618 11.0303 5.90437 11.0303C5.18252 11.0303 4.49023 11.317 3.9798 11.8275C3.46937 12.3379 3.18262 13.0302 3.18262 13.752C3.18262 14.4739 3.46937 15.1662 3.9798 15.6766C4.49023 16.187 5.18252 16.4738 5.90437 16.4738Z" stroke="#999999" stroke-width="1.7" stroke-linejoin="round"/>
<path d="M5.82702 18.4883C4.08509 18.4883 3.21413 18.4883 2.54847 18.8273C1.96321 19.1256 1.48737 19.6014 1.18915 20.1867C0.850098 20.8523 0.850098 21.7233 0.850098 23.4652V23.9318H5.82702" stroke="#999999" stroke-width="1.7" stroke-linecap="round" stroke-linejoin="round"/>
<path d="M5.90492 18.4883C7.64684 18.4883 8.5178 18.4883 9.18346 18.8273C9.76873 19.1256 10.2446 19.6014 10.5428 20.1867C10.8818 20.8523 10.8818 21.7233 10.8818 23.4652V23.9318H5.90492" stroke="#999999" stroke-width="1.7" stroke-linecap="round" stroke-linejoin="round"/>
<path d="M19.2808 6.29311C19.6383 6.29311 19.9922 6.22271 20.3224 6.08593C20.6526 5.94915 20.9527 5.74867 21.2054 5.49593C21.4581 5.24319 21.6586 4.94315 21.7954 4.61293C21.9322 4.28271 22.0026 3.92879 22.0026 3.57136C22.0026 3.21394 21.9322 2.86001 21.7954 2.52979C21.6586 2.19957 21.4581 1.89953 21.2054 1.64679C20.9527 1.39405 20.6526 1.19357 20.3224 1.05679C19.9922 0.92001 19.6383 0.849609 19.2808 0.849609C18.559 0.849609 17.8667 1.13636 17.3563 1.64679C16.8458 2.15722 16.5591 2.84951 16.5591 3.57136C16.5591 4.29322 16.8458 4.9855 17.3563 5.49593C17.8667 6.00636 18.559 6.29311 19.2808 6.29311Z" stroke="#999999" stroke-width="1.7" stroke-linejoin="round"/>
<path d="M19.203 8.30762C17.4611 8.30762 16.5901 8.30762 15.9244 8.64667C15.3392 8.94489 14.8633 9.42072 14.5651 10.006C14.2261 10.6717 14.2261 11.5426 14.2261 13.2845V13.7511H19.203" stroke="#999999" stroke-width="1.7" stroke-linecap="round" stroke-linejoin="round"/>
<path d="M19.2809 8.30762C21.0228 8.30762 21.8938 8.30762 22.5594 8.64667C23.1447 8.94489 23.6205 9.42072 23.9188 10.006C24.2578 10.6717 24.2578 11.5426 24.2578 13.2845V13.7511H19.2809" stroke="#999999" stroke-width="1.7" stroke-linecap="round" stroke-linejoin="round"/>
<line x1="13.9579" y1="22.4723" x2="20.5095" y2="22.4723" stroke="#999999" stroke-width="1.7" stroke-linecap="round"/>
<line x1="20.6117" y1="18.642" x2="20.6117" y2="22.4736" stroke="#999999" stroke-width="1.7" stroke-linecap="round"/>
<line x1="20.5601" y1="16.9413" x2="18.9659" y2="18.5355" stroke="#999999" stroke-width="1.7" stroke-linecap="round"/>
<line x1="0.85" y1="-0.85" x2="3.10455" y2="-0.85" transform="matrix(0.707107 0.707107 0.707107 -0.707107 20.5601 15.7393)" stroke="#999999" stroke-width="1.7" stroke-linecap="round"/>
<line x1="10.9664" y1="2.45645" x2="4.41477" y2="2.45645" stroke="#999999" stroke-width="1.7" stroke-linecap="round"/>
<line x1="4.31309" y1="6.28672" x2="4.31309" y2="2.45513" stroke="#999999" stroke-width="1.7" stroke-linecap="round"/>
<line x1="4.36377" y1="7.98737" x2="5.95798" y2="6.39316" stroke="#999999" stroke-width="1.7" stroke-linecap="round"/>
<line x1="0.85" y1="-0.85" x2="3.10455" y2="-0.85" transform="matrix(-0.707107 -0.707107 -0.707107 0.707107 4.36377 9.18945)" stroke="#999999" stroke-width="1.7" stroke-linecap="round"/>
</svg>
