<svg width="17" height="22" viewBox="0 0 17 22" fill="none" xmlns="http://www.w3.org/2000/svg">
<path d="M8.61718 9.19816C9.1558 9.19816 9.68915 9.09214 10.1868 8.88614C10.6844 8.68014 11.1365 8.37821 11.5174 7.99757C11.8983 7.61694 12.2004 7.16506 12.4065 6.66773C12.6126 6.17041 12.7187 5.63738 12.7187 5.09908C12.7187 4.56078 12.6126 4.02775 12.4065 3.53043C12.2004 3.03311 11.8983 2.58123 11.5174 2.20059C11.1365 1.81996 10.6844 1.51802 10.1868 1.31202C9.68915 1.10603 9.1558 1 8.61718 1C7.52938 1 6.48613 1.43187 5.71694 2.20059C4.94775 2.96932 4.51563 4.01194 4.51562 5.09908C4.51562 6.18623 4.94775 7.22884 5.71694 7.99757C6.48613 8.7663 7.52938 9.19816 8.61718 9.19816Z" stroke="#191818" stroke-width="2" stroke-linejoin="round"/>
<path d="M8.49998 12.8018C5.87499 12.8018 4.56249 12.8018 3.55937 13.3124C2.6774 13.7615 1.96034 14.4781 1.51094 15.3596C1 16.3621 1 17.6738 1 20.2972V20.9999H8.49998" stroke="#191818" stroke-width="2" stroke-linecap="round" stroke-linejoin="round"/>
<path d="M8.50002 12.8018C11.125 12.8018 12.4375 12.8018 13.4406 13.3124C14.3226 13.7615 15.0397 14.4781 15.4891 15.3596C16 16.3621 16 17.6738 16 20.2972V20.9999H8.50002" stroke="#191818" stroke-width="2" stroke-linecap="round" stroke-linejoin="round"/>
</svg>
