<svg width="33" height="97" viewBox="0 0 33 97" fill="none" xmlns="http://www.w3.org/2000/svg">
<g clip-path="url(#clip0_1442_5307)">
<path d="M32.135 24.1436V32.2024H16.1025V16.1699H24.1177C26.3322 16.1699 28.3371 17.0675 29.7873 18.5177C31.2287 19.9591 32.1241 21.9465 32.135 24.1436Z" fill="#B4B4B4" stroke="#B4B4B4" stroke-width="0.109198" stroke-miterlimit="10"/>
<path d="M24.1177 16.1277H16.1025V8.11035C16.1025 12.5394 19.6908 16.1277 24.1177 16.1277Z" fill="#B4B4B4" stroke="#B4B4B4" stroke-width="0.109198" stroke-miterlimit="10"/>
<path d="M32.135 32.2441H16.1025V48.2766H32.135V32.2441Z" fill="#B4B4B4" stroke="#B4B4B4" stroke-width="0.109198" stroke-miterlimit="10"/>
<path d="M32.135 48.3184V56.3357C32.135 58.5481 31.2374 60.5529 29.7873 62.0031C28.3371 63.4532 26.3322 64.3509 24.1177 64.3509C19.6908 64.3509 16.1025 60.7626 16.1025 56.3357V48.3184H32.135Z" fill="#B4B4B4" stroke="#B4B4B4" stroke-width="0.109198" stroke-miterlimit="10"/>
<path d="M13.7394 2.40245C15.1896 3.85261 16.0872 5.85749 16.0872 8.06985V16.0872H8.06985C3.64295 16.0872 0.0546875 12.4989 0.0546875 8.06985C0.0546875 5.85749 0.952298 3.85261 2.40245 2.40245C3.85261 0.952298 5.85531 0.0546875 8.06985 0.0546875C10.2844 0.0546875 12.2893 0.952298 13.7394 2.40245Z" fill="#B4B4B4" stroke="#B4B4B4" stroke-width="0.109198" stroke-miterlimit="10"/>
<path d="M8.07031 16.1289H16.0877V24.1441C16.0877 21.9317 15.19 19.9268 13.7399 18.4767C12.2897 17.0265 10.2849 16.1289 8.07031 16.1289Z" fill="#B4B4B4" stroke="#B4B4B4" stroke-width="0.109198" stroke-miterlimit="10"/>
<path d="M32.135 88.4827V88.5242C32.135 90.7387 31.2374 92.7414 29.7873 94.1916C28.3371 95.6417 26.3322 96.5393 24.1177 96.5393C19.6908 96.5393 16.1025 92.9511 16.1025 88.5242C16.1025 86.3096 17.0001 84.3048 18.4503 82.8546C19.9005 81.4044 21.9032 80.5068 24.1177 80.5068C26.3322 80.5068 28.3371 81.4044 29.7873 82.8546C31.2287 84.296 32.1241 86.2856 32.135 88.4827Z" fill="#B4B4B4" stroke="#B4B4B4" stroke-width="0.109198" stroke-miterlimit="10"/>
</g>
<defs>
<clipPath id="clip0_1442_5307">
<rect width="32.1895" height="96.5947" fill="white"/>
</clipPath>
</defs>
</svg>
