<svg width="24" height="23" viewBox="0 0 24 23" fill="none" xmlns="http://www.w3.org/2000/svg">
<path d="M8.91769 9.5268C9.47757 9.5268 10.032 9.41652 10.5492 9.20226C11.0665 8.98801 11.5365 8.67397 11.9324 8.27808C12.3283 7.88218 12.6423 7.41219 12.8566 6.89493C13.0708 6.37767 13.1811 5.82328 13.1811 5.2634C13.1811 4.70352 13.0708 4.14913 12.8566 3.63187C12.6423 3.11461 12.3283 2.64461 11.9324 2.24872C11.5365 1.85283 11.0665 1.53879 10.5492 1.32453C10.032 1.11028 9.47757 1 8.91769 1C7.78697 1 6.70256 1.44918 5.90302 2.24872C5.10348 3.04826 4.6543 4.13267 4.6543 5.2634C4.6543 6.39412 5.10348 7.47853 5.90302 8.27808C6.70256 9.07762 7.78697 9.5268 8.91769 9.5268Z" stroke="#EE222A" stroke-width="2" stroke-linejoin="round"/>
<path d="M17.4445 15.1016L22.317 19.974M17.4445 19.974L22.317 15.1016M13.7902 13.2744H8.79593C6.06735 13.2744 4.70307 13.2744 3.66036 13.8055C2.74359 14.2726 1.99823 15.018 1.5311 15.9348C1 16.9775 1 18.3418 1 21.0703V21.8012H13.7902" stroke="#EE222A" stroke-width="2" stroke-linecap="round" stroke-linejoin="round"/>
</svg>
