<svg width="26" height="25" viewBox="0 0 26 25" fill="none" xmlns="http://www.w3.org/2000/svg">
<path d="M5.90437 16.4733C6.2618 16.4733 6.61572 16.4029 6.94594 16.2661C7.27616 16.1293 7.5762 15.9288 7.82894 15.6761C8.08168 15.4234 8.28216 15.1233 8.41894 14.7931C8.55572 14.4629 8.62612 14.109 8.62612 13.7515C8.62612 13.3941 8.55572 13.0402 8.41894 12.71C8.28216 12.3797 8.08168 12.0797 7.82894 11.827C7.5762 11.5742 7.27616 11.3737 6.94594 11.237C6.61572 11.1002 6.2618 11.0298 5.90437 11.0298C5.18252 11.0298 4.49023 11.3165 3.9798 11.827C3.46937 12.3374 3.18262 13.0297 3.18262 13.7515C3.18262 14.4734 3.46937 15.1657 3.9798 15.6761C4.49023 16.1865 5.18252 16.4733 5.90437 16.4733Z" stroke="#191818" stroke-width="1.7" stroke-linejoin="round"/>
<path d="M5.82702 18.4883C4.08509 18.4883 3.21413 18.4883 2.54847 18.8273C1.96321 19.1256 1.48737 19.6014 1.18915 20.1867C0.850098 20.8523 0.850098 21.7233 0.850098 23.4652V23.9318H5.82702" stroke="#191818" stroke-width="1.7" stroke-linecap="round" stroke-linejoin="round"/>
<path d="M5.90492 18.4883C7.64684 18.4883 8.5178 18.4883 9.18346 18.8273C9.76873 19.1256 10.2446 19.6014 10.5428 20.1867C10.8818 20.8523 10.8818 21.7233 10.8818 23.4652V23.9318H5.90492" stroke="#191818" stroke-width="1.7" stroke-linecap="round" stroke-linejoin="round"/>
<path d="M19.2808 6.2936C19.6383 6.2936 19.9922 6.2232 20.3224 6.08642C20.6526 5.94964 20.9527 5.74916 21.2054 5.49642C21.4581 5.24368 21.6586 4.94364 21.7954 4.61342C21.9322 4.2832 22.0026 3.92928 22.0026 3.57185C22.0026 3.21442 21.9322 2.8605 21.7954 2.53028C21.6586 2.20006 21.4581 1.90002 21.2054 1.64728C20.9527 1.39454 20.6526 1.19406 20.3224 1.05728C19.9922 0.920498 19.6383 0.850098 19.2808 0.850098C18.559 0.850098 17.8667 1.13685 17.3563 1.64728C16.8458 2.15771 16.5591 2.85 16.5591 3.57185C16.5591 4.2937 16.8458 4.98599 17.3563 5.49642C17.8667 6.00685 18.559 6.2936 19.2808 6.2936Z" stroke="#191818" stroke-width="1.7" stroke-linejoin="round"/>
<path d="M19.203 8.30811C17.4611 8.30811 16.5901 8.30811 15.9244 8.64716C15.3392 8.94537 14.8633 9.42121 14.5651 10.0065C14.2261 10.6721 14.2261 11.5431 14.2261 13.285V13.7516H19.203" stroke="#191818" stroke-width="1.7" stroke-linecap="round" stroke-linejoin="round"/>
<path d="M19.2809 8.30811C21.0228 8.30811 21.8938 8.30811 22.5594 8.64716C23.1447 8.94537 23.6205 9.42121 23.9188 10.0065C24.2578 10.6721 24.2578 11.5431 24.2578 13.285V13.7516H19.2809" stroke="#191818" stroke-width="1.7" stroke-linecap="round" stroke-linejoin="round"/>
<line x1="13.9579" y1="22.4732" x2="20.5095" y2="22.4732" stroke="#191818" stroke-width="1.7" stroke-linecap="round"/>
<line x1="20.6117" y1="18.642" x2="20.6117" y2="22.4736" stroke="#191818" stroke-width="1.7" stroke-linecap="round"/>
<line x1="20.5601" y1="16.9418" x2="18.9659" y2="18.536" stroke="#191818" stroke-width="1.7" stroke-linecap="round"/>
<line x1="0.85" y1="-0.85" x2="3.10455" y2="-0.85" transform="matrix(0.707107 0.707107 0.707107 -0.707107 20.5601 15.7397)" stroke="#191818" stroke-width="1.7" stroke-linecap="round"/>
<line x1="10.9664" y1="2.45645" x2="4.41477" y2="2.45645" stroke="#191818" stroke-width="1.7" stroke-linecap="round"/>
<line x1="4.31309" y1="6.2877" x2="4.31309" y2="2.45611" stroke="#191818" stroke-width="1.7" stroke-linecap="round"/>
<line x1="4.36377" y1="7.98786" x2="5.95798" y2="6.39365" stroke="#191818" stroke-width="1.7" stroke-linecap="round"/>
<line x1="0.85" y1="-0.85" x2="3.10455" y2="-0.85" transform="matrix(-0.707107 -0.707107 -0.707107 0.707107 4.36377 9.18994)" stroke="#191818" stroke-width="1.7" stroke-linecap="round"/>
</svg>
