<svg width="747" height="165" viewBox="0 0 747 165" fill="none" xmlns="http://www.w3.org/2000/svg">
<rect width="747" height="165" fill="#F7F7F7"/>
<path d="M175.181 111.796C174.654 111.796 174.207 111.612 173.838 111.243C173.47 110.874 173.285 110.427 173.285 109.9V58.4809C173.285 57.9017 173.47 57.4278 173.838 57.0592C174.207 56.6906 174.654 56.5063 175.181 56.5063H198.087C202.352 56.5063 205.827 57.1645 208.513 58.4809C211.198 59.7447 213.173 61.5087 214.437 63.7729C215.753 66.0372 216.411 68.67 216.411 71.6714C216.411 73.6724 216.043 75.4364 215.305 76.9634C214.621 78.4378 213.752 79.6489 212.699 80.5968C211.698 81.5446 210.698 82.2818 209.698 82.8083C211.751 83.7562 213.568 85.3359 215.147 87.5475C216.727 89.759 217.517 92.3919 217.517 95.446C217.517 98.6054 216.806 101.423 215.384 103.897C213.963 106.372 211.856 108.321 209.066 109.742C206.275 111.111 202.826 111.796 198.719 111.796H175.181ZM184.264 103.423H197.455C200.298 103.423 202.457 102.66 203.932 101.133C205.406 99.5532 206.143 97.6576 206.143 95.446C206.143 93.1291 205.38 91.2071 203.853 89.6801C202.378 88.153 200.246 87.3895 197.455 87.3895H184.264V103.423ZM184.264 79.175H196.665C199.456 79.175 201.536 78.5168 202.905 77.2004C204.327 75.8313 205.037 74.0673 205.037 71.9084C205.037 69.6968 204.327 67.9855 202.905 66.7744C201.536 65.5106 199.456 64.8787 196.665 64.8787H184.264V79.175ZM226.88 111.796C226.354 111.796 225.906 111.612 225.538 111.243C225.169 110.874 224.985 110.427 224.985 109.9V57.6121C224.985 57.0855 225.169 56.6379 225.538 56.2693C225.906 55.9007 226.354 55.7164 226.88 55.7164H233.436C233.963 55.7164 234.41 55.9007 234.779 56.2693C235.148 56.6379 235.332 57.0855 235.332 57.6121V109.9C235.332 110.427 235.148 110.874 234.779 111.243C234.41 111.612 233.963 111.796 233.436 111.796H226.88ZM261.922 112.586C256.077 112.586 251.443 110.901 248.021 107.531C244.598 104.161 242.755 99.3689 242.492 93.1554C242.439 92.6288 242.413 91.9706 242.413 91.1808C242.413 90.3383 242.439 89.6801 242.492 89.2061C242.702 85.2569 243.598 81.8342 245.177 78.9381C246.81 76.042 249.048 73.8304 251.891 72.3033C254.734 70.7236 258.078 69.9338 261.922 69.9338C266.187 69.9338 269.768 70.8289 272.664 72.6193C275.56 74.3569 277.745 76.8055 279.22 79.9649C280.694 83.0716 281.431 86.6786 281.431 90.7858V92.4445C281.431 92.9711 281.247 93.4187 280.879 93.7873C280.51 94.1559 280.036 94.3402 279.457 94.3402H253.234C253.234 94.3402 253.234 94.4192 253.234 94.5771C253.234 94.7351 253.234 94.8667 253.234 94.9721C253.286 96.815 253.629 98.5264 254.261 100.106C254.945 101.633 255.919 102.871 257.183 103.818C258.499 104.766 260.053 105.24 261.843 105.24C263.318 105.24 264.555 105.03 265.555 104.608C266.556 104.134 267.372 103.608 268.004 103.029C268.636 102.449 269.083 101.975 269.347 101.607C269.821 100.975 270.189 100.606 270.453 100.501C270.768 100.343 271.216 100.264 271.795 100.264H278.588C279.115 100.264 279.536 100.422 279.852 100.738C280.22 101.054 280.378 101.449 280.326 101.923C280.273 102.765 279.825 103.792 278.983 105.003C278.193 106.214 277.035 107.399 275.508 108.558C273.981 109.716 272.059 110.69 269.742 111.48C267.477 112.217 264.871 112.586 261.922 112.586ZM253.234 87.7054H270.689V87.4685C270.689 85.4149 270.347 83.6245 269.663 82.0975C268.978 80.5704 267.978 79.3593 266.661 78.4642C265.345 77.569 263.765 77.1214 261.922 77.1214C260.079 77.1214 258.499 77.569 257.183 78.4642C255.867 79.3593 254.866 80.5704 254.182 82.0975C253.55 83.6245 253.234 85.4149 253.234 87.4685V87.7054ZM290.132 111.796C289.605 111.796 289.157 111.612 288.789 111.243C288.42 110.874 288.236 110.427 288.236 109.9V72.6193C288.236 72.0927 288.42 71.6451 288.789 71.2765C289.157 70.9079 289.605 70.7236 290.132 70.7236H296.608C297.135 70.7236 297.582 70.9079 297.951 71.2765C298.32 71.6451 298.504 72.0927 298.504 72.6193V75.8577C299.873 74.1726 301.611 72.7772 303.717 71.6714C305.876 70.513 308.535 69.9338 311.694 69.9338C314.907 69.9338 317.697 70.671 320.067 72.1454C322.436 73.5671 324.253 75.5944 325.517 78.2272C326.833 80.86 327.492 84.0195 327.492 87.7054V109.9C327.492 110.427 327.307 110.874 326.939 111.243C326.57 111.612 326.122 111.796 325.596 111.796H318.645C318.119 111.796 317.671 111.612 317.302 111.243C316.934 110.874 316.75 110.427 316.75 109.9V88.1793C316.75 85.1252 315.986 82.7294 314.459 80.9917C312.985 79.254 310.826 78.3852 307.982 78.3852C305.244 78.3852 303.059 79.254 301.426 80.9917C299.794 82.7294 298.978 85.1252 298.978 88.1793V109.9C298.978 110.427 298.794 110.874 298.425 111.243C298.056 111.612 297.609 111.796 297.082 111.796H290.132ZM351.189 112.586C348.451 112.586 346.029 112.138 343.922 111.243C341.869 110.295 340.157 108.979 338.788 107.294C337.419 105.609 336.366 103.634 335.629 101.37C334.892 99.053 334.47 96.5254 334.365 93.7873C334.312 92.8395 334.286 91.997 334.286 91.2598C334.286 90.4699 334.312 89.6011 334.365 88.6532C334.47 86.0204 334.865 83.5719 335.55 81.3076C336.287 79.0434 337.34 77.0688 338.709 75.3837C340.131 73.6461 341.869 72.3033 343.922 71.3555C346.029 70.4077 348.451 69.9338 351.189 69.9338C354.032 69.9338 356.428 70.434 358.377 71.4345C360.378 72.3823 362.036 73.6197 363.353 75.1468V57.6121C363.353 57.0855 363.511 56.6379 363.827 56.2693C364.195 55.9007 364.669 55.7164 365.248 55.7164H371.962C372.489 55.7164 372.936 55.9007 373.305 56.2693C373.673 56.6379 373.858 57.0855 373.858 57.6121V109.9C373.858 110.427 373.673 110.874 373.305 111.243C372.936 111.612 372.489 111.796 371.962 111.796H365.722C365.143 111.796 364.669 111.612 364.3 111.243C363.984 110.874 363.827 110.427 363.827 109.9V106.978C362.51 108.61 360.825 109.953 358.771 111.006C356.771 112.059 354.243 112.586 351.189 112.586ZM354.111 104.134C356.323 104.134 358.087 103.634 359.403 102.634C360.72 101.633 361.694 100.369 362.326 98.8423C362.958 97.2626 363.3 95.6566 363.353 94.0242C363.405 93.0764 363.432 92.0759 363.432 91.0228C363.432 89.917 363.405 88.8902 363.353 87.9424C363.3 86.3627 362.931 84.862 362.247 83.4402C361.562 81.9658 360.562 80.7547 359.245 79.8069C357.929 78.8591 356.218 78.3852 354.111 78.3852C351.9 78.3852 350.136 78.8854 348.819 79.8859C347.556 80.8337 346.634 82.0975 346.055 83.6772C345.476 85.2569 345.133 86.9946 345.028 88.8902C344.975 90.4699 344.975 92.0496 345.028 93.6293C345.133 95.525 345.476 97.2626 346.055 98.8423C346.634 100.422 347.556 101.712 348.819 102.713C350.136 103.66 351.9 104.134 354.111 104.134ZM400.498 112.586C394.653 112.586 390.019 110.901 386.596 107.531C383.174 104.161 381.331 99.3689 381.068 93.1554C381.015 92.6288 380.989 91.9706 380.989 91.1808C380.989 90.3383 381.015 89.6801 381.068 89.2061C381.278 85.2569 382.173 81.8342 383.753 78.9381C385.385 76.042 387.623 73.8304 390.467 72.3033C393.31 70.7236 396.654 69.9338 400.498 69.9338C404.763 69.9338 408.344 70.8289 411.24 72.6193C414.136 74.3569 416.321 76.8055 417.796 79.9649C419.27 83.0716 420.007 86.6786 420.007 90.7858V92.4445C420.007 92.9711 419.823 93.4187 419.454 93.7873C419.086 94.1559 418.612 94.3402 418.033 94.3402H391.809C391.809 94.3402 391.809 94.4192 391.809 94.5771C391.809 94.7351 391.809 94.8667 391.809 94.9721C391.862 96.815 392.204 98.5264 392.836 100.106C393.521 101.633 394.495 102.871 395.759 103.818C397.075 104.766 398.629 105.24 400.419 105.24C401.893 105.24 403.131 105.03 404.131 104.608C405.132 104.134 405.948 103.608 406.58 103.029C407.212 102.449 407.659 101.975 407.922 101.607C408.396 100.975 408.765 100.606 409.028 100.501C409.344 100.343 409.792 100.264 410.371 100.264H417.164C417.69 100.264 418.112 100.422 418.427 100.738C418.796 101.054 418.954 101.449 418.901 101.923C418.849 102.765 418.401 103.792 417.559 105.003C416.769 106.214 415.61 107.399 414.083 108.558C412.556 109.716 410.634 110.69 408.317 111.48C406.053 112.217 403.447 112.586 400.498 112.586ZM391.809 87.7054H409.265V87.4685C409.265 85.4149 408.923 83.6245 408.238 82.0975C407.554 80.5704 406.553 79.3593 405.237 78.4642C403.921 77.569 402.341 77.1214 400.498 77.1214C398.655 77.1214 397.075 77.569 395.759 78.4642C394.442 79.3593 393.442 80.5704 392.757 82.0975C392.125 83.6245 391.809 85.4149 391.809 87.4685V87.7054ZM428.707 111.796C428.181 111.796 427.733 111.612 427.365 111.243C426.996 110.874 426.812 110.427 426.812 109.9V72.6982C426.812 72.119 426.996 71.6451 427.365 71.2765C427.733 70.9079 428.181 70.7236 428.707 70.7236H435.105C435.632 70.7236 436.079 70.9079 436.448 71.2765C436.869 71.6451 437.08 72.119 437.08 72.6982V75.9366C438.291 74.2516 439.844 72.9615 441.74 72.0664C443.688 71.1712 445.926 70.7236 448.454 70.7236H451.692C452.271 70.7236 452.719 70.9079 453.035 71.2765C453.403 71.6451 453.588 72.0927 453.588 72.6193V78.3062C453.588 78.8328 453.403 79.2803 453.035 79.6489C452.719 80.0175 452.271 80.2018 451.692 80.2018H445.531C443.004 80.2018 441.029 80.9127 439.607 82.3344C438.238 83.7562 437.554 85.7045 437.554 88.1793V109.9C437.554 110.427 437.369 110.874 437.001 111.243C436.632 111.612 436.158 111.796 435.579 111.796H428.707ZM468.752 126.803C468.331 126.803 467.962 126.645 467.646 126.329C467.33 126.013 467.172 125.645 467.172 125.223C467.172 125.013 467.172 124.802 467.172 124.591C467.225 124.434 467.33 124.223 467.488 123.96L473.649 109.347L458.484 73.5671C458.273 73.0405 458.168 72.6719 458.168 72.4613C458.221 71.9874 458.405 71.5925 458.721 71.2765C459.037 70.9079 459.432 70.7236 459.906 70.7236H466.304C466.935 70.7236 467.409 70.8816 467.725 71.1975C468.041 71.5135 468.278 71.8557 468.436 72.2243L478.941 98.0525L489.762 72.2243C489.92 71.8031 490.157 71.4608 490.473 71.1975C490.789 70.8816 491.263 70.7236 491.895 70.7236H498.214C498.635 70.7236 499.003 70.8816 499.319 71.1975C499.688 71.5135 499.872 71.8821 499.872 72.3033C499.872 72.6193 499.767 73.0405 499.556 73.5671L477.204 125.302C476.993 125.724 476.73 126.066 476.414 126.329C476.098 126.645 475.624 126.803 474.992 126.803H468.752Z" fill="#191818"/>
<path d="M511.309 69.9076H509.689V60.5926H506.479V59.1976H514.519V60.5926H511.309V69.9076ZM520.826 69.9076L517.586 60.8026H517.526C517.536 61.0026 517.551 61.2726 517.571 61.6126C517.591 61.9526 517.606 62.3176 517.616 62.7076C517.626 63.0976 517.631 63.4826 517.631 63.8626V69.9076H516.161V59.1976H518.471L521.546 67.7926H521.606L524.771 59.1976H527.081V69.9076H525.506V63.7726C525.506 63.4226 525.511 63.0626 525.521 62.6926C525.541 62.3126 525.556 61.9576 525.566 61.6276C525.586 61.2976 525.601 61.0276 525.611 60.8176H525.551L522.221 69.9076H520.826Z" fill="#191818"/>
<path d="M95.5973 105.771H81.6924V119.69H95.5973V105.771Z" fill="#181818" stroke="#231F20" stroke-width="0.202631" stroke-miterlimit="10"/>
<path d="M81.6498 119.688H74.6985C72.7813 119.688 71.0461 118.911 69.7806 117.642C68.5237 116.384 67.7471 114.647 67.7471 112.73V105.771H81.652V119.69L81.6498 119.688Z" fill="#181818" stroke="#231F20" stroke-width="0.202631" stroke-miterlimit="10"/>
<path d="M67.6816 91.7565H53.7661V77.8373H53.7344V63.9182H67.6393V77.8373H67.6816V91.7565Z" fill="#181818" stroke="#231F20" stroke-width="0.202631" stroke-miterlimit="10"/>
<path d="M67.6393 105.684H60.6858C58.7686 105.684 57.0228 104.907 55.7679 103.649C54.5131 102.392 53.7344 100.655 53.7344 98.7257V91.7672H67.6393V105.686V105.684Z" fill="#181818" stroke="#231F20" stroke-width="0.202631" stroke-miterlimit="10"/>
<path d="M95.5973 49.9884H81.6924V63.9076H95.5973V49.9884Z" fill="#181818" stroke="#231F20" stroke-width="0.202631" stroke-miterlimit="10"/>
<path d="M81.65 49.9884H67.7451V63.9076H81.65V49.9884Z" fill="#181818" stroke="#231F20" stroke-width="0.202631" stroke-miterlimit="10"/>
<path d="M67.6816 63.9076H53.7661V56.949C53.7661 53.1001 56.8874 49.9884 60.7302 49.9884H67.6837V63.9076H67.6816Z" fill="#181818" stroke="#231F20" stroke-width="0.202631" stroke-miterlimit="10"/>
<path d="M67.6814 105.771V112.73C67.6814 110.8 66.9026 109.063 65.6478 107.807C64.3803 106.548 62.645 105.771 60.73 105.771H67.6835H67.6814Z" fill="#181818" stroke="#231F20" stroke-width="0.202631" stroke-miterlimit="10"/>
<path d="M69.747 103.649C71.0039 104.907 72.7391 105.684 74.6648 105.684H67.7134V98.7256C67.7134 100.655 68.49 102.392 69.747 103.649Z" fill="#181818" stroke="#231F20" stroke-width="0.202631" stroke-miterlimit="10"/>
<path d="M144.401 91.7565H137.449V77.8373H137.417V63.9182H151.322V77.8373H151.354V84.7959C151.354 86.715 150.577 88.452 149.321 89.7187C148.064 90.977 146.328 91.7544 144.403 91.7544L144.401 91.7565Z" fill="#181818" stroke="#231F20" stroke-width="0.202631" stroke-miterlimit="10"/>
<path d="M109.534 49.9884H95.6289V63.9076H109.534V49.9884Z" fill="#181818" stroke="#231F20" stroke-width="0.202631" stroke-miterlimit="10"/>
<path d="M151.352 63.9076H137.447V49.9884H144.399C146.326 49.9884 148.062 50.7658 149.316 52.0241C150.573 53.2823 151.35 55.0193 151.35 56.9469V63.9055L151.352 63.9076Z" fill="#181818" stroke="#231F20" stroke-width="0.202631" stroke-miterlimit="10"/>
<path d="M137.418 49.9884H123.513V63.9076H137.418V49.9884Z" fill="#181818" stroke="#231F20" stroke-width="0.202631" stroke-miterlimit="10"/>
<path d="M137.418 84.7959V91.7544H130.464C132.382 91.7544 134.127 90.977 135.382 89.7188C136.639 88.4499 137.416 86.7129 137.416 84.7959H137.418Z" fill="#181818" stroke="#231F20" stroke-width="0.202631" stroke-miterlimit="10"/>
<path d="M137.417 98.7257V91.7672H144.369C140.526 91.7672 137.417 94.8789 137.417 98.7257Z" fill="#181818" stroke="#231F20" stroke-width="0.202631" stroke-miterlimit="10"/>
<path d="M125.546 89.7208C126.803 90.9791 128.549 91.7565 130.464 91.7565H123.513V84.798C123.513 86.7171 124.289 88.4541 125.546 89.7208Z" fill="#181818" stroke="#231F20" stroke-width="0.202631" stroke-miterlimit="10"/>
<path d="M123.481 91.7565H109.565V77.8373H109.534V63.9182H123.436V77.8373H123.481V91.7565Z" fill="#181818" stroke="#231F20" stroke-width="0.202631" stroke-miterlimit="10"/>
<path d="M123.481 49.9884H109.565V63.9076H123.481V49.9884Z" fill="#181818" stroke="#231F20" stroke-width="0.202631" stroke-miterlimit="10"/>
<path d="M130.433 105.684H123.479V91.765H137.384V98.7235C137.384 100.653 136.607 102.39 135.34 103.646C134.083 104.905 132.348 105.682 130.433 105.682V105.684Z" fill="#181818" stroke="#231F20" stroke-width="0.202631" stroke-miterlimit="10"/>
<path d="M123.439 91.7672H109.534V105.686H123.439V91.7672Z" fill="#181818" stroke="#231F20" stroke-width="0.202631" stroke-miterlimit="10"/>
<path d="M109.502 98.7256V105.684H102.551C104.468 105.684 106.203 104.907 107.469 103.649C108.726 102.39 109.502 100.653 109.502 98.7256Z" fill="#181818" stroke="#231F20" stroke-width="0.202631" stroke-miterlimit="10"/>
<path d="M102.58 119.688H95.6289V105.769H109.534V112.727C109.534 114.647 108.757 116.384 107.5 117.64C106.243 118.909 104.508 119.686 102.582 119.686L102.58 119.688Z" fill="#181818" stroke="#231F20" stroke-width="0.202631" stroke-miterlimit="10"/>
<path d="M109.565 112.73V105.771H116.527C112.685 105.771 109.565 108.883 109.565 112.73Z" fill="#181818" stroke="#231F20" stroke-width="0.202631" stroke-miterlimit="10"/>
</svg>
