<svg width="112" height="11" viewBox="0 0 112 11" fill="none" xmlns="http://www.w3.org/2000/svg">
<g clip-path="url(#clip0_311_10800)">
<path d="M0 10.5672V0.267578H8.2295V2.73761H3.30905V4.102H7.46889V6.47009H3.30905V8.06581H8.42946V10.5672H0Z" fill="#243C83"/>
<path d="M9.97804 10.5672V0.267578H13.9771C14.9926 0.267578 15.7493 0.310706 16.2433 0.400881C16.7412 0.491057 17.1725 0.643963 17.541 0.851759C18.2546 1.27127 18.7917 1.85937 19.1524 2.61998C19.5092 3.37668 19.6896 4.31372 19.6896 5.42327C19.6896 6.59163 19.47 7.5718 19.0191 8.36378C18.5761 9.15967 17.9174 9.74778 17.0509 10.1359C16.7177 10.2928 16.2943 10.3986 15.7885 10.4653C15.2827 10.5319 14.4751 10.5633 13.3616 10.5633H9.97412L9.97804 10.5672ZM13.2832 7.95995H14.1771C14.9965 7.95995 15.5689 7.77568 15.8904 7.40713C16.208 7.04251 16.3687 6.37991 16.3687 5.42719C16.3687 4.47446 16.2041 3.84324 15.8787 3.45509C15.5572 3.06694 15.0004 2.87483 14.2163 2.87483H13.2832V7.95995Z" fill="#243C83"/>
<path d="M24.6335 0.267578H21.2617V10.5633H24.6335V0.267578Z" fill="#243C83"/>
<path d="M29.907 10.5672V6.75238L26.1157 0.267578H29.7855L31.5576 3.77658L33.3494 0.267578H36.9133L33.2121 6.75238V10.5672H29.907Z" fill="#243C83"/>
<path d="M35.333 10.5672L38.9557 0.267578H42.304L45.9267 10.5633H42.6451L42.2608 9.19888H38.9832L38.5832 10.5633H35.333V10.5672ZM39.583 7.04251H41.661L40.6338 3.47861L39.583 7.04251Z" fill="#243C83"/>
<path d="M58.2655 6.57205H61.3942C61.3001 7.9286 60.8257 8.98326 59.9631 9.73211C59.0967 10.481 57.9322 10.8534 56.458 10.8534C54.8074 10.8534 53.5097 10.3712 52.5609 9.40278C51.616 8.43437 51.1416 7.10918 51.1416 5.42329C51.1416 3.7374 51.6121 2.42397 52.5491 1.45164C53.4822 0.483234 54.7604 -0.00292969 56.3796 -0.00292969C57.8695 -0.00292969 59.0457 0.357773 59.9004 1.07526C60.7551 1.80058 61.2373 2.8278 61.3393 4.16475H58.1714C58.1282 3.63546 57.9557 3.23947 57.6578 2.96894C57.3676 2.70234 56.952 2.57296 56.4228 2.57296C55.7758 2.57296 55.2897 2.8082 54.9643 3.2826C54.6388 3.75308 54.4781 4.46664 54.4781 5.42329C54.4781 6.37993 54.6545 7.06997 54.9956 7.55222C55.3406 8.03446 55.8464 8.27362 56.5129 8.27362C57.0265 8.27362 57.4343 8.12463 57.7323 7.83058C58.0342 7.54045 58.2106 7.12094 58.2616 6.57205" fill="#243C83"/>
<path d="M62.3423 5.42622C62.3423 3.74817 62.8206 2.4269 63.7773 1.45457C64.7378 0.486164 66.0434 0 67.7019 0C69.3603 0 70.6541 0.482243 71.6108 1.45457C72.5713 2.4269 73.0418 3.74817 73.0418 5.42622C73.0418 7.10427 72.5674 8.42554 71.6108 9.39786C70.6541 10.3663 69.3525 10.8564 67.7019 10.8564C66.0512 10.8564 64.7417 10.3702 63.7812 9.39786C62.8245 8.42554 62.3462 7.10035 62.3462 5.42622M65.6827 5.42622C65.6827 6.39855 65.8474 7.11603 66.1728 7.57475C66.4982 8.02955 67.0118 8.25695 67.7019 8.25695C68.3919 8.25695 68.9016 8.02955 69.2231 7.57475C69.5446 7.11995 69.7014 6.40247 69.7014 5.4223C69.7014 4.44213 69.5407 3.72072 69.2231 3.26592C68.9016 2.81505 68.3958 2.58373 67.7019 2.58373C67.0079 2.58373 66.4982 2.81505 66.1728 3.26985C65.8474 3.72464 65.6827 4.44213 65.6827 5.4223" fill="#243C83"/>
<path d="M74.5557 10.5672V0.267578H82.3421V2.85915H77.8608V4.45486H81.4286V6.94449H77.8608V10.5672H74.5557Z" fill="#243C83"/>
<path d="M83.605 10.5672V0.267578H91.3954V2.85915H86.9101V4.45486H90.4779V6.94449H86.9101V10.5672H83.605Z" fill="#243C83"/>
<path d="M92.6494 10.5672V0.267578H100.883V2.73761H95.9585V4.102H100.122V6.47009H95.9585V8.06581H101.083V10.5672H92.6494Z" fill="#243C83"/>
<path d="M102.631 10.5672V0.267578H110.861V2.73761H105.936V4.102H110.104V6.47009H105.936V8.06581H111.061V10.5672H102.631Z" fill="#243C83"/>
</g>
<defs>
<clipPath id="clip0_311_10800">
<rect width="111.061" height="10.8524" fill="white"/>
</clipPath>
</defs>
</svg>
