<svg width="50" height="50" viewBox="0 0 50 50" fill="none" xmlns="http://www.w3.org/2000/svg">
<circle cx="25" cy="25" r="25" fill="#F7F7F7"/>
<path d="M23.7445 31.7744H19.6904V35.7682H23.7445V31.7744Z" fill="#D8D8D8" stroke="#D8D8D8" stroke-width="0.45" stroke-miterlimit="10"/>
<path d="M19.6785 35.7676H17.6517C17.0928 35.7676 16.5869 35.5445 16.2179 35.1804C15.8514 34.8194 15.625 34.321 15.625 33.771V31.7744H19.6791V35.7682L19.6785 35.7676Z" fill="#D8D8D8" stroke="#D8D8D8" stroke-width="0.45" stroke-miterlimit="10"/>
<path d="M15.6045 27.7541H11.5473L11.5473 23.7604H11.5381V19.7666H15.5922V23.7604H15.6045V27.7541Z" fill="#D8D8D8" stroke="#D8D8D8" stroke-width="0.45" stroke-miterlimit="10"/>
<path d="M15.5922 31.75H13.5648C13.0059 31.75 12.4969 31.5269 12.131 31.1659C11.7651 30.8055 11.5381 30.3071 11.5381 29.7534V27.7568H15.5922V31.7506V31.75Z" fill="#D8D8D8" stroke="#D8D8D8" stroke-width="0.45" stroke-miterlimit="10"/>
<path d="M23.7445 15.7695H19.6904V19.7633H23.7445V15.7695Z" fill="#D8D8D8" stroke="#D8D8D8" stroke-width="0.45" stroke-miterlimit="10"/>
<path d="M19.6781 15.7695H15.624V19.7633H19.6781V15.7695Z" fill="#D8D8D8" stroke="#D8D8D8" stroke-width="0.45" stroke-miterlimit="10"/>
<path d="M15.606 19.7633H11.5488V17.7667C11.5488 16.6624 12.4589 15.7695 13.5793 15.7695H15.6066V19.7633H15.606Z" fill="#D8D8D8" stroke="#D8D8D8" stroke-width="0.45" stroke-miterlimit="10"/>
<path d="M15.6039 31.7744V33.771C15.6039 33.2173 15.3768 32.7189 15.011 32.3585C14.6414 31.9975 14.1355 31.7744 13.5771 31.7744H15.6045H15.6039Z" fill="#D8D8D8" stroke="#D8D8D8" stroke-width="0.45" stroke-miterlimit="10"/>
<path d="M16.2081 31.1664C16.5746 31.5274 17.0805 31.7505 17.642 31.7505H15.6152V29.7539C15.6152 30.3076 15.8417 30.806 16.2081 31.1664Z" fill="#D8D8D8" stroke="#D8D8D8" stroke-width="0.45" stroke-miterlimit="10"/>
<path d="M37.9725 27.7541H35.9458V23.7604H35.9365V19.7666H39.9906V23.7604H39.9999V25.7569C39.9999 26.3076 39.7735 26.806 39.407 27.1694C39.0405 27.5304 38.5346 27.7535 37.9731 27.7535L37.9725 27.7541Z" fill="#D8D8D8" stroke="#D8D8D8" stroke-width="0.45" stroke-miterlimit="10"/>
<path d="M27.807 15.7695H23.7529V19.7633H27.807V15.7695Z" fill="#D8D8D8" stroke="#D8D8D8" stroke-width="0.45" stroke-miterlimit="10"/>
<path d="M39.9994 19.7633H35.9453V15.7695H37.9721C38.5341 15.7695 39.04 15.9926 39.4059 16.3536C39.7724 16.7146 39.9988 17.213 39.9988 17.7661V19.7627L39.9994 19.7633Z" fill="#D8D8D8" stroke="#D8D8D8" stroke-width="0.45" stroke-miterlimit="10"/>
<path d="M35.9369 15.7695H31.8828V19.7633H35.9369V15.7695Z" fill="#D8D8D8" stroke="#D8D8D8" stroke-width="0.45" stroke-miterlimit="10"/>
<path d="M35.9365 25.7578V27.7544H33.9092C34.4682 27.7544 34.9772 27.5313 35.343 27.1703C35.7095 26.8062 35.9359 26.3079 35.9359 25.7578H35.9365Z" fill="#D8D8D8" stroke="#D8D8D8" stroke-width="0.45" stroke-miterlimit="10"/>
<path d="M35.9365 29.7534V27.7568H37.9633C36.8429 27.7568 35.9365 28.6497 35.9365 29.7534Z" fill="#D8D8D8" stroke="#D8D8D8" stroke-width="0.45" stroke-miterlimit="10"/>
<path d="M32.4757 27.1703C32.8422 27.5313 33.3512 27.7544 33.9096 27.7544H31.8828V25.7578C31.8828 26.3085 32.1092 26.8068 32.4757 27.1703Z" fill="#D8D8D8" stroke="#D8D8D8" stroke-width="0.45" stroke-miterlimit="10"/>
<path d="M31.8741 27.7541H27.8169V23.7604H27.8076V19.7666H31.8611V23.7604H31.8741V27.7541Z" fill="#D8D8D8" stroke="#D8D8D8" stroke-width="0.45" stroke-miterlimit="10"/>
<path d="M31.8736 15.7695H27.8164V19.7633H31.8736V15.7695Z" fill="#D8D8D8" stroke="#D8D8D8" stroke-width="0.45" stroke-miterlimit="10"/>
<path d="M33.9014 31.7496H31.874V27.7559H35.9281V29.7524C35.9281 30.3061 35.7017 30.8045 35.3321 31.1649C34.9657 31.5259 34.4597 31.749 33.9014 31.749V31.7496Z" fill="#D8D8D8" stroke="#D8D8D8" stroke-width="0.45" stroke-miterlimit="10"/>
<path d="M31.8617 27.7568H27.8076V31.7506H31.8617V27.7568Z" fill="#D8D8D8" stroke="#D8D8D8" stroke-width="0.45" stroke-miterlimit="10"/>
<path d="M27.7982 29.7539V31.7505H25.7715C26.3305 31.7505 26.8364 31.5274 27.2053 31.1664C27.5718 30.8054 27.7982 30.307 27.7982 29.7539Z" fill="#D8D8D8" stroke="#D8D8D8" stroke-width="0.45" stroke-miterlimit="10"/>
<path d="M25.7797 35.7682H23.7529V31.7744H27.807V33.771C27.807 34.3216 27.5806 34.82 27.2141 35.1804C26.8476 35.5445 26.3417 35.7676 25.7803 35.7676L25.7797 35.7682Z" fill="#D8D8D8" stroke="#D8D8D8" stroke-width="0.45" stroke-miterlimit="10"/>
<path d="M27.8164 33.771V31.7744H29.8462C28.7258 31.7744 27.8164 32.6672 27.8164 33.771Z" fill="#D8D8D8" stroke="#D8D8D8" stroke-width="0.45" stroke-miterlimit="10"/>
</svg>
