<svg width="15" height="18" viewBox="0 0 15 18" fill="none" xmlns="http://www.w3.org/2000/svg">
<path d="M7.05385 15.1422L2.82154 16.9592C2.14974 17.2453 1.51154 17.1908 0.906923 16.7957C0.302308 16.4007 0 15.8411 0 15.1169V2.01896C0 1.46374 0.197508 0.988616 0.592523 0.593574C0.987538 0.198531 1.46183 0.000672986 2.01538 0H12.0923C12.6465 0 13.1212 0.197858 13.5162 0.593574C13.9112 0.989289 14.1084 1.46442 14.1077 2.01896V15.1169C14.1077 15.8404 13.8054 16.4 13.2008 16.7957C12.5962 17.1914 11.9579 17.2459 11.2862 16.9592L7.05385 15.1422ZM7.05385 12.9213L12.0923 15.0917V2.01896H2.01538V15.0917L7.05385 12.9213ZM7.05385 2.01896H2.01538H12.0923H7.05385Z" fill="#ABABAB"/>
</svg>
