<svg width="50" height="50" viewBox="0 0 50 50" fill="none" xmlns="http://www.w3.org/2000/svg">
<circle cx="25" cy="25" r="25" fill="#F7F7F7"/>
<path d="M18.9955 26.844H15V30.546H18.9955V26.844Z" fill="#D8D8D8" stroke="#D8D8D8" stroke-width="0.05" stroke-miterlimit="10"/>
<path d="M18.4131 15.1616C18.7747 14.8265 19.0008 14.3657 19.0008 13.8525V15.7062H17.0059C17.5597 15.7062 18.057 15.4967 18.4187 15.1616H18.4131Z" fill="#D8D8D8" stroke="#D8D8D8" stroke-width="0.05" stroke-miterlimit="10"/>
<path d="M17.0006 15.7123H18.9955V19.4143H15V17.5607C15 17.0475 15.2261 16.5867 15.5877 16.2516C15.9494 15.9165 16.4468 15.707 17.0006 15.707V15.7123Z" fill="#D8D8D8" stroke="#D8D8D8" stroke-width="0.05" stroke-miterlimit="10"/>
<path d="M32.9938 15.7123H30.9932V13.8586C30.9932 14.8797 31.8861 15.7123 32.9938 15.7123Z" fill="#D8D8D8" stroke="#D8D8D8" stroke-width="0.05" stroke-miterlimit="10"/>
<path d="M28.9927 15.7123H30.9933V17.5607C30.9933 17.0475 30.7672 16.5867 30.4055 16.2516C30.0438 15.9165 29.5465 15.707 28.9927 15.707V15.7123Z" fill="#D8D8D8" stroke="#D8D8D8" stroke-width="0.05" stroke-miterlimit="10"/>
<path d="M30.4059 12.5446C30.7676 12.8797 30.9936 13.3405 30.9936 13.8536V15.7073H26.9981V15.7177H23.0026V12.0105H26.9981V12H28.9987C29.5525 12 30.0498 12.2094 30.4115 12.5446H30.4059Z" fill="#D8D8D8" stroke="#D8D8D8" stroke-width="0.05" stroke-miterlimit="10"/>
<path d="M30.9932 23.1431H32.9938C32.4399 23.1431 31.9426 23.3525 31.5809 23.6876C31.2192 24.0228 30.9932 24.4835 30.9932 24.9967V23.1483V23.1431Z" fill="#D8D8D8" stroke="#D8D8D8" stroke-width="0.05" stroke-miterlimit="10"/>
<path d="M34.9943 19.4363V21.2847C34.9943 21.7978 34.7683 22.2586 34.4066 22.5937C34.0449 22.9289 33.5476 23.1383 32.9938 23.1383H30.9932V19.4363H34.9887H34.9943Z" fill="#D8D8D8" stroke="#D8D8D8" stroke-width="0.05" stroke-miterlimit="10"/>
<path d="M30.4055 22.5815C30.7672 22.2464 30.9933 21.7856 30.9933 21.2725V23.1261H28.9927C29.5465 23.1261 30.0438 22.9166 30.4055 22.5815Z" fill="#D8D8D8" stroke="#D8D8D8" stroke-width="0.05" stroke-miterlimit="10"/>
<path d="M22.9965 23.137H19.001V26.839H22.9965V23.137Z" fill="#D8D8D8" stroke="#D8D8D8" stroke-width="0.05" stroke-miterlimit="10"/>
<path d="M18.9955 23.137H15V26.839H18.9955V23.137Z" fill="#D8D8D8" stroke="#D8D8D8" stroke-width="0.05" stroke-miterlimit="10"/>
<path d="M26.998 23.137H30.9935V26.839H26.998V26.8442H23.0024V23.1422H26.998V23.137Z" fill="#D8D8D8" stroke="#D8D8D8" stroke-width="0.05" stroke-miterlimit="10"/>
<path d="M28.9927 26.844H30.9933V28.6976C30.9933 28.1845 30.7672 27.7237 30.4055 27.3886C30.0438 27.0534 29.5465 26.844 28.9927 26.844Z" fill="#D8D8D8" stroke="#D8D8D8" stroke-width="0.05" stroke-miterlimit="10"/>
<path d="M30.9932 34.2925H32.9938C32.4399 34.2925 31.9426 34.5019 31.5809 34.837C31.2192 35.1722 30.9932 35.633 30.9932 36.1461V34.2925Z" fill="#D8D8D8" stroke="#D8D8D8" stroke-width="0.05" stroke-miterlimit="10"/>
<path d="M30.4055 33.7207C30.7672 33.3856 30.9933 32.9248 30.9933 32.4116V34.26H28.9927C29.5465 34.26 30.0438 34.0506 30.4055 33.7154V33.7207Z" fill="#D8D8D8" stroke="#D8D8D8" stroke-width="0.05" stroke-miterlimit="10"/>
<path d="M30.9938 34.2822V36.1359C30.9938 36.649 30.7677 37.1098 30.406 37.4449C30.0443 37.78 29.547 37.9895 28.9932 37.9895H26.9926V38H22.9971V34.2979H26.9926V34.2875H30.9881L30.9938 34.2822Z" fill="#D8D8D8" stroke="#D8D8D8" stroke-width="0.05" stroke-miterlimit="10"/>
<path d="M34.9943 30.5671V32.4208C34.9943 32.9339 34.7683 33.3947 34.4066 33.7298C34.0449 34.0649 33.5476 34.2744 32.9938 34.2744H30.9932V30.5724H34.9887L34.9943 30.5671Z" fill="#D8D8D8" stroke="#D8D8D8" stroke-width="0.05" stroke-miterlimit="10"/>
<path d="M34.9945 28.7079V30.5563H30.999V26.8542H32.9996C33.5534 26.8542 34.0508 27.0637 34.4125 27.3988C34.7741 27.7339 35.0002 28.1947 35.0002 28.7079H34.9945Z" fill="#D8D8D8" stroke="#D8D8D8" stroke-width="0.05" stroke-miterlimit="10"/>
<path d="M32.9938 26.8451H30.9932V24.9915C30.9932 26.0125 31.8861 26.8451 32.9938 26.8451Z" fill="#D8D8D8" stroke="#D8D8D8" stroke-width="0.05" stroke-miterlimit="10"/>
<path d="M34.9945 17.5696V19.4232H30.999V15.7212H32.9996C33.5534 15.7212 34.0508 15.9306 34.4125 16.2658C34.7741 16.6009 35.0002 17.0617 35.0002 17.5748L34.9945 17.5696Z" fill="#D8D8D8" stroke="#D8D8D8" stroke-width="0.05" stroke-miterlimit="10"/>
<path d="M21.0016 12H22.9965V15.702H19.001V13.8484C19.001 13.3352 19.227 12.8745 19.5887 12.5393C19.9504 12.2094 20.4477 12 21.0016 12Z" fill="#D8D8D8" stroke="#D8D8D8" stroke-width="0.05" stroke-miterlimit="10"/>
<path d="M19.001 15.7131H21.0016C20.4477 15.7131 19.9504 15.9226 19.5887 16.2577C19.227 16.5928 19.001 17.0536 19.001 17.5668V15.7184V15.7131Z" fill="#D8D8D8" stroke="#D8D8D8" stroke-width="0.05" stroke-miterlimit="10"/>
<path d="M18.9955 19.426H15V23.128H18.9955V19.426Z" fill="#D8D8D8" stroke="#D8D8D8" stroke-width="0.05" stroke-miterlimit="10"/>
<path d="M22.9965 34.2822V37.9843H21.0016C19.8995 37.9843 19.001 37.1569 19.001 36.1359V34.2822H22.9965Z" fill="#D8D8D8" stroke="#D8D8D8" stroke-width="0.05" stroke-miterlimit="10"/>
<path d="M17.0008 34.2822H18.9957V36.1359C18.9957 35.6227 18.7696 35.1619 18.408 34.8268C18.0463 34.4917 17.549 34.2822 16.9951 34.2822H17.0008Z" fill="#D8D8D8" stroke="#D8D8D8" stroke-width="0.05" stroke-miterlimit="10"/>
<path d="M21.0016 34.26H19.001V32.4116C19.001 33.4327 19.8939 34.26 21.0016 34.26Z" fill="#D8D8D8" stroke="#D8D8D8" stroke-width="0.05" stroke-miterlimit="10"/>
<path d="M15 30.5571H18.9955V34.2592H17.0006C15.8986 34.2592 15 33.4318 15 32.4108V30.5571Z" fill="#D8D8D8" stroke="#D8D8D8" stroke-width="0.05" stroke-miterlimit="10"/>
</svg>
